<svg xmlns="http://www.w3.org/2000/svg" viewBox="0 0 1202 550"><defs><style>.cls-1{fill:#cef3d1;}.cls-2{fill:#ffd191;stroke:#ffd191;stroke-width:0;}.cls-2,.cls-7,.cls-8,.cls-9{stroke-miterlimit:10;}.cls-3{fill:#57d785;}.cls-4,.cls-7{fill:#fff;}.cls-5{fill:#00884b;}.cls-6{fill:#00aa5e;}.cls-10,.cls-7,.cls-8{stroke:#57d785;}.cls-7,.cls-8{stroke-width:8px;}.cls-10,.cls-8,.cls-9{fill:none;}.cls-9{stroke:#00aa5e;stroke-width:2px;}.cls-10{stroke-linecap:round;stroke-linejoin:round;stroke-width:9px;}</style></defs><title>PredictingCarPrice</title><g id="Layer_1" data-name="Layer 1"><rect class="cls-1" width="1202" height="550"/></g><g id="Layer_2" data-name="Layer 2"><circle class="cls-2" cx="672.705" cy="247.763" r="1.668"/><circle class="cls-2" cx="551.529" cy="290.008" r="1.668"/><circle class="cls-1" cx="663.043" cy="184.864" r="2.223"/><circle class="cls-1" cx="620.814" cy="318.157" r="2.223"/><path class="cls-3" d="M382.583,88.83a13.53,13.53,0,0,1,11.151,11.152.179.179,0,0,0,.354,0A13.531,13.531,0,0,1,405.239,88.83a.178.178,0,0,0,0-.353,13.53,13.53,0,0,1-11.151-11.151.178.178,0,0,0-.354,0,13.529,13.529,0,0,1-11.151,11.151A.178.178,0,0,0,382.583,88.83Z"/><path class="cls-4" d="M759.212,99.778a13.517,13.517,0,0,1,11.14,11.139.178.178,0,0,0,.353,0,13.515,13.515,0,0,1,11.14-11.139.178.178,0,0,0,0-.353,13.517,13.517,0,0,1-11.14-11.14.178.178,0,0,0-.353,0,13.518,13.518,0,0,1-11.14,11.14A.178.178,0,0,0,759.212,99.778Z"/><path class="cls-4" d="M879.225,333.512a13.517,13.517,0,0,1,11.14,11.14.178.178,0,0,0,.353,0,13.518,13.518,0,0,1,11.14-11.14.178.178,0,0,0,0-.353,13.517,13.517,0,0,1-11.14-11.139.178.178,0,0,0-.353,0,13.515,13.515,0,0,1-11.14,11.139A.178.178,0,0,0,879.225,333.512Z"/><path class="cls-3" d="M805.571,76.57A20.613,20.613,0,0,1,822.56,93.559a.272.272,0,0,0,.539,0A20.613,20.613,0,0,1,840.088,76.57a.272.272,0,0,0,0-.539A20.613,20.613,0,0,1,823.1,59.042a.272.272,0,0,0-.539,0,20.613,20.613,0,0,1-16.989,16.989A.272.272,0,0,0,805.571,76.57Z"/><path class="cls-4" d="M153.415,334.882a13.515,13.515,0,0,1,11.14,11.139.178.178,0,0,0,.353,0,13.517,13.517,0,0,1,11.14-11.139.178.178,0,0,0,0-.353,13.519,13.519,0,0,1-11.14-11.14.178.178,0,0,0-.353,0,13.518,13.518,0,0,1-11.14,11.14A.178.178,0,0,0,153.415,334.882Z"/><path class="cls-5" d="M164.021,409.256a25.589,25.589,0,0,1,21.089,21.089.337.337,0,0,0,.668,0,25.589,25.589,0,0,1,21.089-21.089.337.337,0,0,0,0-.669A25.59,25.59,0,0,1,185.778,387.5a.337.337,0,0,0-.668,0,25.59,25.59,0,0,1-21.089,21.089A.337.337,0,0,0,164.021,409.256Z"/><circle class="cls-1" cx="668.774" cy="272.527" r="3.495"/><path class="cls-6" d="M593.472,141.621a7.947,7.947,0,1,0,5.7,9.687A7.945,7.945,0,0,0,593.472,141.621Zm-2.658,10.257a2.649,2.649,0,1,1,3.229-1.9A2.648,2.648,0,0,1,590.814,151.878Z"/><path class="cls-6" d="M594.469,137.774c-8.63-2.237-16.4.709-22.223,6.555,2.248,7.937,7.611,14.287,16.241,16.524s16.4-.708,22.224-6.554C608.463,146.362,603.1,140.011,594.469,137.774Zm-5.317,20.515c-6.621-1.716-11.5-6.368-13.883-13.177,5.389-4.794,11.915-6.49,18.536-4.773s11.5,6.368,13.882,13.176C602.3,158.31,595.773,160.005,589.152,158.289Z"/><circle class="cls-4" cx="382.691" cy="306.638" r="40.25"/><path class="cls-6" d="M360.191,296.8v25.312l19.688,5.625h16.875v-5.625H382.691V319.3h19.688V313.67H382.691v-2.813h22.5v-5.625h-22.5V302.42h19.688V296.8H377.066l5.625-8.438-2.579-2.812Z"/><circle class="cls-4" cx="894.691" cy="149.638" r="40.25"/><path class="cls-1" d="M873.6,147.059l2.813,2.579,8.437-5.625v25.313h5.625V149.638h2.813v22.5h5.625v-22.5h2.812v19.688h5.625V149.638h2.813V163.7h5.625V146.826l-5.625-19.688H884.847Z"/><path class="cls-3" d="M247.635,311.68A25.623,25.623,0,1,0,273.258,337.3,25.623,25.623,0,0,0,247.635,311.68Zm3.494,31.446-9.317-9.317,19.8-10.482Z"/><path class="cls-3" d="M603.138,488.521a8.759,8.759,0,0,0,9.011-8.5l0-.165a9.51,9.51,0,0,0-1.316-4.976l12.673-14.953a10.36,10.36,0,0,0,3.167.768,8.279,8.279,0,0,0,5.517-1.836l12.384,8.556a11.872,11.872,0,0,0-.4,2.469,8.84,8.84,0,0,0,17.676.351,9.912,9.912,0,0,0-1.145-4.619l13.916-15.281a7.908,7.908,0,0,0,3.519.775,8.84,8.84,0,1,0-8.659-9.178l0,.164a9.925,9.925,0,0,0,1.144,4.62L656.708,462a7.911,7.911,0,0,0-3.519-.775,8.279,8.279,0,0,0-5.517,1.836l-12.384-8.556a10.346,10.346,0,0,0,.4-2.469,8.839,8.839,0,1,0-17.675-.347,9.5,9.5,0,0,0,1.316,4.976l-12.673,14.953a6.059,6.059,0,0,0-3.167-.768,8.837,8.837,0,1,0-.352,17.671Z"/><path class="cls-3" d="M247.927,118.258a31.385,31.385,0,1,0,31.284,31.485A31.387,31.387,0,0,0,247.927,118.258Zm-.008,2.242a28.943,28.943,0,0,1,15.591,4.621l-8.265,8.212a17.753,17.753,0,0,0-14.733-.047l-8.212-8.265A28.95,28.95,0,0,1,247.919,120.5ZM231.47,156.957l-8.265,8.212a28.923,28.923,0,0,1,.1-31.21l8.212,8.265a17.753,17.753,0,0,0-.047,14.733Zm16.263,21.828a28.942,28.942,0,0,1-15.59-4.621l8.265-8.212a17.753,17.753,0,0,0,14.733.047l8.212,8.265A28.951,28.951,0,0,1,247.733,178.785Zm14.695-23.428a15.665,15.665,0,1,1,1.09-5.664A15.74,15.74,0,0,1,262.428,155.357Zm1.708,1.7a17.753,17.753,0,0,0,.047-14.733l8.265-8.212a28.923,28.923,0,0,1-.1,31.21Z"/><path class="cls-7" d="M711.872,95.432a28.111,28.111,0,0,0-47.986,19.877,30.568,30.568,0,0,0,8.236,21.046L692,157.477l19.875-21.122a30.568,30.568,0,0,0,8.236-21.046A28.021,28.021,0,0,0,711.872,95.432Z"/><circle class="cls-3" cx="691.997" cy="115.309" r="9.37"/><path class="cls-8" d="M998.59,335.156a31.257,31.257,0,0,0-53.356,22.1,33.994,33.994,0,0,0,9.158,23.4l22.1,23.484,22.1-23.484a33.99,33.99,0,0,0,9.158-23.4A31.153,31.153,0,0,0,998.59,335.156Z"/><circle class="cls-3" cx="976.491" cy="357.257" r="10.419"/><path class="cls-6" d="M465.092,88.256a14.326,14.326,0,1,1,20.256,0l4.052,4.052a20.057,20.057,0,1,0-28.359,0Z"/><path class="cls-6" d="M472.355,98.184h5.73L475.22,72.4Z"/><path class="cls-5" d="M521.011,432.063a23.13,23.13,0,1,1,32.705,0l6.541,6.541a32.382,32.382,0,1,0-45.787,0Z"/><path class="cls-3" d="M532.738,448.091h9.251l-4.625-41.633Z"/><circle class="cls-6" cx="1045.612" cy="276.623" r="6"/><circle class="cls-4" cx="1045.612" cy="230.623" r="6"/><circle class="cls-9" cx="1024.612" cy="253.623" r="6"/><circle class="cls-3" cx="1066.612" cy="253.623" r="6"/><path class="cls-6" d="M318.36,400.731H289.805V466H318.36Zm-4.079,61.19h-20.4V404.81h20.4Zm12.238-40.793h28.555v4.079H326.519Zm0,8.158h28.555v4.079H326.519Zm0,8.159h28.555v4.079H326.519Zm0,8.158h28.555v4.08H326.519Zm0,8.159h28.555v4.079H326.519Zm0,8.159h28.555V466H326.519Z"/><path class="cls-3" d="M334,421.128h21v4.079H334Zm10,8.158h11v4.079H344Zm0,8.159h11v4.079H344ZM334,445.6h21v4.08H334Zm10,8.159h11v4.079H344Zm-10,8.159h21V466H334Z"/><path class="cls-3" d="M253.091,433.365h28.555V466H253.091Z"/><circle class="cls-6" cx="1003.625" cy="159.433" r="15.433"/><circle class="cls-3" cx="1003.625" cy="159.433" r="9.067"/><circle class="cls-6" cx="423.855" cy="416.016" r="15.433"/><circle class="cls-3" cx="423.855" cy="416.016" r="9.067"/><circle class="cls-6" cx="299.625" cy="249.348" r="9.067"/><circle class="cls-3" cx="257.42" cy="249.348" r="9.067"/><circle class="cls-4" cx="215.215" cy="249.348" r="9.067"/><path class="cls-4" d="M471.341,152.825l-4.611-6.02-26.089,19.983-7.686-10.034-6.02,4.612,12.3,16.054Z"/><path class="cls-5" d="M133.264,221.348h7v24.5h-7Zm17.5,0v24.5h24.5v-24.5Zm17.5,17.5h-10.5v-10.5h10.5Zm7,38.5h-7v-24.5h7Zm-17.5,0v-24.5h-24.5v24.5Zm-17.5-17.5h10.5v10.5h-10.5Z"/><path class="cls-3" d="M150.764,221.348v24.5h24.5v-24.5Zm17.5,17.5h-10.5v-10.5h10.5Zm-10.5,38.5v-24.5h-24.5v24.5Zm-17.5-17.5h10.5v10.5h-10.5Z"/><path class="cls-3" d="M816.151,312.487a20.049,20.049,0,0,0-11.038,3.189,21.1,21.1,0,0,0-11.037-3.189,20.849,20.849,0,1,0,0,41.7A20.042,20.042,0,0,0,805.113,351a21.117,21.117,0,0,0,11.038,3.188,20.849,20.849,0,1,0,0-41.7Zm-11.038,7.726A16.694,16.694,0,0,1,807.2,322.3h-4.17A16.968,16.968,0,0,1,805.113,320.213Zm-5.027,19.255h9.934a15.354,15.354,0,0,1-1.226,2.454h-7.6C800.821,341.185,800.454,340.327,800.086,339.468Zm-.736-9.812h11.4c.122.737.246,1.595.368,2.454H798.982C799.1,331.251,799.227,330.393,799.35,329.656Zm-.246,4.906h12.142a7.89,7.89,0,0,1-.368,2.453H799.472A7.92,7.92,0,0,1,799.1,334.562Zm11.038-7.359h-9.934a15.343,15.343,0,0,1,1.226-2.453h7.6C809.406,325.486,809.775,326.345,810.142,327.2Zm-16.066,23.3a17.17,17.17,0,1,1,0-34.339,16.923,16.923,0,0,1,7.849,1.963,20.772,20.772,0,0,0,0,30.414A16.9,16.9,0,0,1,794.076,350.505Zm11.037-4.047a16.745,16.745,0,0,1-2.084-2.084h4.17A16.83,16.83,0,0,1,805.113,346.458Z"/><path class="cls-3" d="M780.25,151.25A26.75,26.75,0,1,0,807,178,26.75,26.75,0,0,0,780.25,151.25Zm0,49.679A22.929,22.929,0,1,1,803.179,178,22.955,22.955,0,0,1,780.25,200.929Z"/><path class="cls-5" d="M792.949,163.949l-12.025,12.024-6.966-6.967-2.7,2.7,6.967,6.968-2.471,2.469L777.1,182.5l2.471-2.473,3.147,3.147,2.7-2.7-3.147-3.147L794.3,165.3Z"/><circle class="cls-3" cx="866" cy="254.95" r="6"/><circle class="cls-9" cx="796" cy="254.95" r="6"/><circle class="cls-4" cx="831" cy="254.95" r="6"/><path class="cls-4" d="M788.627,411.231V398.1H775.5v4.774H755.212v25.062H739.7v-4.774H726.569v13.128H739.7v-4.774h15.515v23.869H775.5v4.773h13.128V447.033H775.5v4.774H758.791V431.519H775.5v4.774h13.128V423.165H775.5v4.774H758.791V406.457H775.5v4.774Zm-52.511,21.482H730.15v-5.967h5.967v5.967Z"/><path class="cls-3" d="M883.46,458.776v-2.945a22.8,22.8,0,0,1-13.317-5.212,3.681,3.681,0,0,1-.083-5.528l.624-.571a3.671,3.671,0,0,1,4.868-.038,16.461,16.461,0,0,0,8.579,3.891V433.234c-10.888-2.312-15.437-7.01-15.437-14.319,0-7.905,5.444-12.976,14.766-14.02v-3.021a3.692,3.692,0,0,1,3.691-3.691h0a3.692,3.692,0,0,1,3.692,3.691V404.9a20.763,20.763,0,0,1,10.894,4.153,3.689,3.689,0,0,1,.119,5.685l-.53.458a3.662,3.662,0,0,1-4.689.116,14.855,14.855,0,0,0-6.465-2.955v13.872c10.59,2.461,15.437,6.637,15.437,14.318s-5,13.648-14.766,15.065v3.169a3.692,3.692,0,0,1-3.692,3.692h0A3.692,3.692,0,0,1,883.46,458.776Zm.671-33.9v-12.6c-4.251.745-6.414,2.908-6.414,6.264C877.717,422.047,879.731,423.688,884.131,424.881Zm6.041,9.7V448.3c4.176-.894,6.488-3.58,6.488-7.084C896.66,438.231,895.168,435.918,890.172,434.576Z"/><path class="cls-5" d="M738.912,225.211,528.128,173.556a15.09,15.09,0,0,0-12.813,2.32l-69.4,48.722a15.583,15.583,0,0,0-4.88,19.9l38.988,75.3a16.512,16.512,0,0,0,10.064,8.119l210.785,51.655a15.776,15.776,0,0,0,18.806-11.4l30.411-124.021A15.093,15.093,0,0,0,738.912,225.211Zm-202.33,32.167a21.954,21.954,0,1,1-16.094-26.549A22.019,22.019,0,0,1,536.582,257.378Z"/><path class="cls-4" d="M570.411,297.006l.736-3.01a23.988,23.988,0,0,1-12.262-8.593,3.9,3.9,0,0,1,1.264-5.732l.741-.406a3.916,3.916,0,0,1,5.048,1.213,17.278,17.278,0,0,0,7.754,6.065l3.781-15.466c-10.546-5.08-14.019-11.016-12.194-18.483,1.974-8.075,8.8-11.9,18.588-10.635l.754-3.086a3.881,3.881,0,0,1,4.692-2.848h0a3.881,3.881,0,0,1,2.849,4.692l-.754,3.086a21.879,21.879,0,0,1,10.016,6.868,3.918,3.918,0,0,1-1.237,5.942l-.65.334a3.816,3.816,0,0,1-4.785-1.027,15.6,15.6,0,0,0-5.89-4.665l-3.463,14.17c10.2,5.159,14.112,10.636,12.194,18.483s-8.514,12.694-18.85,11.7l-.791,3.238a3.881,3.881,0,0,1-4.692,2.849h0A3.882,3.882,0,0,1,570.411,297.006Zm9.148-34.462,3.147-12.876c-4.524-.3-7.276,1.372-8.114,4.8C573.717,258.049,575.361,260.226,579.559,262.544Zm3.754,11.414-3.427,14.019c4.489.128,7.522-2.036,8.4-5.618C589.028,279.312,588.077,276.576,583.313,273.958Z"/><line class="cls-10" x1="628.138" y1="266.574" x2="703.534" y2="285.004"/><line class="cls-10" x1="621.994" y1="291.706" x2="697.391" y2="310.137"/><path class="cls-3" d="M546.427,67.707l4.294.814-5.7,30.056-4.293-.814Zm31.127,11.14a10.2,10.2,0,0,0-2.594-4.255,11.289,11.289,0,0,0-10.866-2.061,10.167,10.167,0,0,0-3.973,3.01,15.694,15.694,0,0,0-2.518,4.55,31.9,31.9,0,0,0-1.94,10.239,15.676,15.676,0,0,0,.677,5.155,10.146,10.146,0,0,0,2.594,4.256A11.274,11.274,0,0,0,569.8,101.8a10.178,10.178,0,0,0,3.973-3.011,15.663,15.663,0,0,0,2.515-4.549A31.8,31.8,0,0,0,578.229,84,15.718,15.718,0,0,0,577.554,78.847Zm-6.012,13.641a13.8,13.8,0,0,1-1.579,3.357,6.077,6.077,0,0,1-2.207,2.061,4.818,4.818,0,0,1-5.52-1.047,6.212,6.212,0,0,1-1.277-2.722,13.663,13.663,0,0,1-.239-3.7,33.614,33.614,0,0,1,.548-4.345,33.039,33.039,0,0,1,1.077-4.223,13.915,13.915,0,0,1,1.578-3.358,6.212,6.212,0,0,1,2.189-2.086,4.819,4.819,0,0,1,5.519,1.047,6.082,6.082,0,0,1,1.3,2.747,14.165,14.165,0,0,1,.24,3.7,32.924,32.924,0,0,1-.544,4.324A33.472,33.472,0,0,1,571.542,92.488Zm49.131-.437A15.774,15.774,0,0,0,620,86.9a10.189,10.189,0,0,0-2.594-4.255,11.287,11.287,0,0,0-10.867-2.06,10.161,10.161,0,0,0-3.972,3.01,15.681,15.681,0,0,0-2.518,4.55,31.936,31.936,0,0,0-1.941,10.239,15.68,15.68,0,0,0,.678,5.155,10.146,10.146,0,0,0,2.594,4.256,11.27,11.27,0,0,0,10.865,2.059,10.174,10.174,0,0,0,3.973-3.01,15.669,15.669,0,0,0,2.515-4.55,31.8,31.8,0,0,0,1.942-10.239Zm-6.687,8.487a13.81,13.81,0,0,1-1.579,3.356,6.079,6.079,0,0,1-2.207,2.062,4.818,4.818,0,0,1-5.52-1.047,6.217,6.217,0,0,1-1.277-2.722,13.666,13.666,0,0,1-.239-3.7,33.592,33.592,0,0,1,.548-4.345,33,33,0,0,1,1.077-4.223,13.9,13.9,0,0,1,1.578-3.358,6.194,6.194,0,0,1,2.189-2.086,4.819,4.819,0,0,1,5.519,1.047,6.065,6.065,0,0,1,1.295,2.747,14.117,14.117,0,0,1,.241,3.7,32.909,32.909,0,0,1-.544,4.323A33.445,33.445,0,0,1,613.986,100.538ZM588.871,75.757l4.294.814-5.7,30.056-4.293-.815Z"/><path class="cls-4" d="M577.554,78.847a10.2,10.2,0,0,0-2.594-4.255,11.289,11.289,0,0,0-10.866-2.061,10.167,10.167,0,0,0-3.973,3.01,15.694,15.694,0,0,0-2.518,4.55,31.9,31.9,0,0,0-1.94,10.239,15.676,15.676,0,0,0,.677,5.155,10.146,10.146,0,0,0,2.594,4.256A11.274,11.274,0,0,0,569.8,101.8a10.178,10.178,0,0,0,3.973-3.011,15.663,15.663,0,0,0,2.515-4.549A31.8,31.8,0,0,0,578.229,84,15.718,15.718,0,0,0,577.554,78.847Zm-6.012,13.641a13.8,13.8,0,0,1-1.579,3.357,6.077,6.077,0,0,1-2.207,2.061,4.818,4.818,0,0,1-5.52-1.047,6.212,6.212,0,0,1-1.277-2.722,13.663,13.663,0,0,1-.239-3.7,33.614,33.614,0,0,1,.548-4.345,33.039,33.039,0,0,1,1.077-4.223,13.915,13.915,0,0,1,1.578-3.358,6.212,6.212,0,0,1,2.189-2.086,4.819,4.819,0,0,1,5.519,1.047,6.082,6.082,0,0,1,1.3,2.747,14.165,14.165,0,0,1,.24,3.7,32.924,32.924,0,0,1-.544,4.324A33.472,33.472,0,0,1,571.542,92.488Zm49.131-.437A15.774,15.774,0,0,0,620,86.9a10.189,10.189,0,0,0-2.594-4.255,11.287,11.287,0,0,0-10.867-2.06,10.161,10.161,0,0,0-3.972,3.01,15.681,15.681,0,0,0-2.518,4.55,31.936,31.936,0,0,0-1.941,10.239,15.68,15.68,0,0,0,.678,5.155,10.146,10.146,0,0,0,2.594,4.256,11.27,11.27,0,0,0,10.865,2.059,10.174,10.174,0,0,0,3.973-3.01,15.669,15.669,0,0,0,2.515-4.55,31.8,31.8,0,0,0,1.942-10.239Zm-6.687,8.487a13.81,13.81,0,0,1-1.579,3.356,6.079,6.079,0,0,1-2.207,2.062,4.818,4.818,0,0,1-5.52-1.047,6.217,6.217,0,0,1-1.277-2.722,13.666,13.666,0,0,1-.239-3.7,33.592,33.592,0,0,1,.548-4.345,33,33,0,0,1,1.077-4.223,13.9,13.9,0,0,1,1.578-3.358,6.194,6.194,0,0,1,2.189-2.086,4.819,4.819,0,0,1,5.519,1.047,6.065,6.065,0,0,1,1.295,2.747,14.117,14.117,0,0,1,.241,3.7,32.909,32.909,0,0,1-.544,4.323A33.445,33.445,0,0,1,613.986,100.538Z"/><path class="cls-3" d="M941.25,228.653a27.5,27.5,0,1,0,27.5,27.5A27.5,27.5,0,0,0,941.25,228.653Z"/><path class="cls-4" d="M945.179,252.224H933.393v3.929h3.928v11.786h-3.928v3.928h15.714v-3.928h-3.928Z"/><circle class="cls-4" cx="941.25" cy="244.367" r="3.929"/><path class="cls-6" d="M941.25,228.653h-.035v11.788c.012,0,.023,0,.035,0a3.929,3.929,0,1,1,0,7.857c-.012,0-.023,0-.035,0v3.932h3.964v15.715h3.928v3.928h-7.892v11.785h.035a27.5,27.5,0,0,0,0-55Z"/><path class="cls-3" d="M358.526,137.422A20.677,20.677,0,1,0,379.2,158.1,20.674,20.674,0,0,0,358.526,137.422Zm0,33.082a12.406,12.406,0,1,1,12.406-12.4A12.421,12.421,0,0,1,358.526,170.5Zm-16.541,16.542a8.269,8.269,0,0,0-8.27,8.27v8.271h49.623v-8.271a8.27,8.27,0,0,0-8.271-8.27Z"/><path class="cls-4" d="M358.57,187.046H341.985a8.269,8.269,0,0,0-8.27,8.27v8.271H358.57Z"/><path class="cls-4" d="M358.526,178.775l.044,0V170.5l-.044,0a12.406,12.406,0,1,1,0-24.811l.044,0v-8.27c-.014,0-.029,0-.044,0a20.677,20.677,0,0,0,0,41.353Z"/></g></svg>