<svg xmlns="http://www.w3.org/2000/svg" viewBox="0 0 1202 550"><defs><style>.cls-1{fill:#e1ebf7;}.cls-2{fill:#a8c0f3;}.cls-3{fill:#fff;}.cls-4{fill:none;stroke:#5392ff;stroke-miterlimit:10;stroke-width:2px;}.cls-5{fill:#5392ff;}</style></defs><title>notebook_headers</title><g id="Layer_1" data-name="Layer 1"><rect class="cls-1" width="1202" height="550"/></g><g id="Layer_2" data-name="Layer 2"><circle class="cls-1" cx="474.9" cy="167.06" r="9.949"/><circle class="cls-1" cx="503.246" cy="167.06" r="9.949"/><circle class="cls-1" cx="531.592" cy="167.06" r="9.949"/><circle class="cls-2" cx="1078" cy="282" r="6"/><circle class="cls-3" cx="1078" cy="236" r="6"/><circle class="cls-4" cx="1057" cy="259" r="6"/><circle class="cls-5" cx="1099" cy="259" r="6"/><rect class="cls-3" x="792.219" y="57.816" width="82.726" height="82.726" rx="20" ry="20"/><path class="cls-5" d="M856,111.5l-6,6V98a19.5,19.5,0,1,0-39,0v1.5h6V98a13.5,13.5,0,0,1,27,0v19.5l-6-6-3,3,12,12,12-11.938Z"/><path class="cls-3" d="M172.629,345.858H163.9l4.366-13.1h-8.733l-4.367,13.1v17.467h17.467Z"/><path class="cls-3" d="M146.428,345.858h-8.734l4.367-13.1h-8.734l-4.367,13.1v17.467h17.468Z"/><path class="cls-3" d="M980,121.134h-8.433l4.217-12.649h-8.433l-4.217,12.649V138H980Z"/><path class="cls-3" d="M954.7,121.134h-8.433l4.216-12.649h-8.432l-4.217,12.649V138H954.7Z"/><path class="cls-2" d="M850.285,442.008a25.482,25.482,0,0,0-50.476-1.534,22.487,22.487,0,1,0-3.378,44.716h45a22.5,22.5,0,0,0,8.856-43.182Z"/><path class="cls-3" d="M601.21,448.2a20.943,20.943,0,0,0-41.484-1.261,18.3,18.3,0,0,0-2.776-.231,18.491,18.491,0,0,0,0,36.982h36.982a18.491,18.491,0,0,0,7.278-35.49Z"/><path class="cls-5" d="M861.7,227.7a10.279,10.279,0,0,0-9.938,7.726H840.733a10.122,10.122,0,0,0-1.149-2.73l16.809-16.808a10.29,10.29,0,1,0-4.633-11.365H840.733a10.3,10.3,0,1,0,0,5.151h11.03a10.213,10.213,0,0,0,1.04,2.529l-16.762,16.976a10.288,10.288,0,1,0,4.692,11.4h11.03A10.285,10.285,0,1,0,861.7,227.7Zm-30.9-15.451a5.151,5.151,0,1,1,5.15-5.151A5.156,5.156,0,0,1,830.8,212.249Zm30.9-10.3a5.151,5.151,0,1,1-5.151,5.15A5.155,5.155,0,0,1,861.7,201.948Zm-30.9,41.2a5.151,5.151,0,1,1,5.15-5.151A5.156,5.156,0,0,1,830.8,243.152Z"/><path class="cls-3" d="M955.471,381.62l-23.844,23.843a17.318,17.318,0,1,0,11.548,11.548l4.6-4.6v-3.85h3.849l15.4-15.4V381.62Zm7.7,9.952-13.142,13.144h-6.105v6.1l-3.47,3.468-1.632,1.632.67,2.208a13.482,13.482,0,1,1-8.981-8.98l2.206.669,1.632-1.632,22.717-22.715h6.1Z"/><circle class="cls-3" cx="922.752" cy="425.887" r="3.849"/><path class="cls-3" d="M947.091,400.187l11.548-11.548L960,390l-11.548,11.548Z"/><path class="cls-5" d="M1026.193,200.589l23.845-23.843A17.323,17.323,0,1,0,1038.49,165.2l-4.6,4.6v3.85h-3.85l-15.4,15.4v11.548Zm-7.7-9.953,13.142-13.143h6.105v-6.1l3.47-3.468,1.632-1.633-.67-2.207a13.482,13.482,0,1,1,8.981,8.98l-2.206-.669-1.632,1.632L1024.6,196.74h-6.1Z"/><circle class="cls-5" cx="1058.912" cy="156.322" r="3.849"/><path class="cls-5" d="M1034.573,182.022l-11.548,11.548-1.361-1.361,11.548-11.548Z"/><path class="cls-2" d="M1004.163,303.786l-28.615-28.615,7.93-13.217a3.076,3.076,0,0,0,1.608.5,3.18,3.18,0,1,0-3.179-3.179,3.094,3.094,0,0,0,.5,1.609l-13.217,7.929L940.574,240.2a44.969,44.969,0,0,0,63.589,63.589Zm-69.947-31.8a39.074,39.074,0,0,1,6.762-22.4l53.79,53.79a39.074,39.074,0,0,1-22.4,6.762,37.109,37.109,0,0,1-38.153-38.153Zm15.9,50.871h31.794V335.58H950.113Z"/><path class="cls-3" d="M270.1,349.375a39.8,39.8,0,1,0,39.8,39.8A39.8,39.8,0,0,0,270.1,349.375Z"/><path class="cls-2" d="M270.1,349.375a39.8,39.8,0,1,0,39.8,39.8A39.8,39.8,0,0,0,270.1,349.375Zm14.01,51.8-12-12,23.06-23.06.017.02C296.741,379.338,292.789,391.888,284.106,401.179Zm-28.021-24,12,12-23.06,23.061-.017-.02C243.45,399.018,247.4,386.469,256.085,377.177Zm37.071-13.069-23.06,23.06-12.013-12.012a42.973,42.973,0,0,1,29.586-11.449,47.629,47.629,0,0,1,5.43.35Zm-46.121,50.141L270.1,391.188,282.108,403.2a42.968,42.968,0,0,1-29.583,11.45,47.956,47.956,0,0,1-5.433-.35Zm42.175-53.317c-.515-.017-1.027-.068-1.538-.068a45.806,45.806,0,0,0-31.6,12.282l-9.041-9.041a33.979,33.979,0,0,1,42.175-3.173Zm-44.185,5.186,9.024,9.024a46.372,46.372,0,0,0-12.214,33.128,33.971,33.971,0,0,1,3.19-42.152Zm5.956,51.306c.515.018,1.03.069,1.541.069a45.781,45.781,0,0,0,31.593-12.283l9.041,9.042a33.98,33.98,0,0,1-42.175,3.172Zm44.185-5.185-9.024-9.024a46.374,46.374,0,0,0,12.214-33.128,33.971,33.971,0,0,1-3.19,42.152Z"/><path class="cls-2" d="M362.006,295.677H349.5a9.938,9.938,0,1,0-.249,3.714h12.751a18.593,18.593,0,0,0,37.017-2.425v-.051a18.542,18.542,0,0,0-17.332-18.447V265.717a9.869,9.869,0,1,0-3.717.252v12.5a18.057,18.057,0,0,0-9.283,4.085l-14.733-14.733a9.581,9.581,0,0,0,1.732-5.569,9.9,9.9,0,1,0-9.9,9.9,9.578,9.578,0,0,0,5.569-1.733l14.733,14.733A18.383,18.383,0,0,0,362.006,295.677Zm33.3,1.238a14.856,14.856,0,1,1-14.856-14.856A14.9,14.9,0,0,1,395.306,296.915Z"/><path class="cls-3" d="M775,281.786v14.193a59.608,59.608,0,0,1,59.609,59.608h14.192A73.8,73.8,0,0,0,775,281.786Z"/><path class="cls-3" d="M775,310.171v14.193a31.222,31.222,0,0,1,31.224,31.223H820.42A45.414,45.414,0,0,0,775,310.171Z"/><circle class="cls-3" cx="779.262" cy="351.329" r="9.935"/><path class="cls-5" d="M269.407,89h-13.8a11.283,11.283,0,0,0-11.282,11.283v5.048a.94.94,0,0,0,.94.941h17.118a.94.94,0,0,1,.94.94v2.725a.94.94,0,0,1-.94.94H246.374a21.045,21.045,0,0,0-21.044,21.045v14.861a.94.94,0,0,0,.94.941h15.651a.94.94,0,0,0,.94-.941V135.645a8.928,8.928,0,0,1,8.969-8.652h21.4a8.518,8.518,0,0,0,8.518-8.519V101.339A12.344,12.344,0,0,0,269.407,89Z"/><path class="cls-5" d="M301.336,110.009H285.589a.939.939,0,0,0-.939.94v6.992c0,7.066-3.379,12.218-12.384,12.218h-17.8c-6.4,0-8.5,3.167-8.5,8.518v17.712a12.331,12.331,0,0,0,12.319,12.343h13.767a11.271,11.271,0,0,0,11.26-11.282V152.4a.939.939,0,0,0-.939-.94H265.293a.939.939,0,0,1-.938-.941V147.8a.939.939,0,0,1,.938-.941h14.181a22.825,22.825,0,0,0,22.8-22.848V110.949A.939.939,0,0,0,301.336,110.009Z"/><path class="cls-3" d="M378.353,190.963h48v12h-48Zm15.9-12h16.2l3.15,9h9l-15.75-45h-9l-15.75,45h9Zm8.1-23.142,4.95,14.142h-9.9Z"/><path class="cls-3" d="M394.253,178.963h16.2l3.15,9h9l-15.75-45h-9l-15.75,45h9Zm8.1-23.142,4.95,14.142h-9.9Z"/><path class="cls-3" d="M1069.548,362.991,1054,347.443l-15.548,15.548,3.279,3.279L1054,354l12.269,12.27Zm0,31.1-3.279-3.279L1054,403.078l-12.269-12.27-3.279,3.279L1054,409.635Z"/><path class="cls-2" d="M1069.548,394.087l-3.279-3.279L1054,403.078l-12.269-12.27-3.279,3.279L1054,409.635Z"/><path class="cls-3" d="M708.221,113.78,726,96,708.221,78.22l-3.75,3.75L718.5,96l-14.031,14.03Zm-35.561,0,3.75-3.75L662.379,96,676.41,81.97l-3.75-3.75L654.881,96Z"/><path class="cls-3" d="M196.579,242.317h4.371v30.592h-4.371Zm32.658,5.145a10.192,10.192,0,0,0-3.342-3.7,11.284,11.284,0,0,0-11.06,0,10.175,10.175,0,0,0-3.342,3.7,15.694,15.694,0,0,0-1.625,4.94,31.82,31.82,0,0,0,0,10.421,15.705,15.705,0,0,0,1.625,4.939,10.146,10.146,0,0,0,3.343,3.7,11.27,11.27,0,0,0,11.058,0,10.186,10.186,0,0,0,3.342-3.7,15.67,15.67,0,0,0,1.624-4.939,31.863,31.863,0,0,0,0-10.422A15.723,15.723,0,0,0,229.237,247.462Zm-3.365,14.522a13.77,13.77,0,0,1-.926,3.593,6.073,6.073,0,0,1-1.784,2.436,4.82,4.82,0,0,1-5.618,0,6.2,6.2,0,0,1-1.762-2.436,13.663,13.663,0,0,1-.925-3.593,33.441,33.441,0,0,1-.271-4.371,32.988,32.988,0,0,1,.271-4.349,13.875,13.875,0,0,1,.925-3.594,6.192,6.192,0,0,1,1.762-2.457,4.82,4.82,0,0,1,5.618,0,6.08,6.08,0,0,1,1.784,2.457,14.119,14.119,0,0,1,.926,3.594,32.766,32.766,0,0,1,.271,4.349A33.312,33.312,0,0,1,225.872,261.984Zm48.189-9.584a15.8,15.8,0,0,0-1.623-4.939,10.2,10.2,0,0,0-3.342-3.7,11.287,11.287,0,0,0-11.06,0,10.166,10.166,0,0,0-3.342,3.7,15.67,15.67,0,0,0-1.626,4.94,31.894,31.894,0,0,0,0,10.421,15.681,15.681,0,0,0,1.626,4.939,10.152,10.152,0,0,0,3.342,3.7,11.272,11.272,0,0,0,11.059,0,10.2,10.2,0,0,0,3.342-3.7,15.694,15.694,0,0,0,1.623-4.939,31.79,31.79,0,0,0,0-10.422Zm-4.988,9.584a13.808,13.808,0,0,1-.927,3.593,6.073,6.073,0,0,1-1.784,2.436,4.82,4.82,0,0,1-5.618,0,6.218,6.218,0,0,1-1.762-2.436,13.664,13.664,0,0,1-.924-3.593,33.268,33.268,0,0,1-.271-4.371,32.818,32.818,0,0,1,.271-4.349,13.916,13.916,0,0,1,.924-3.594,6.211,6.211,0,0,1,1.762-2.457,4.82,4.82,0,0,1,5.618,0,6.08,6.08,0,0,1,1.784,2.457,14.16,14.16,0,0,1,.927,3.594,32.936,32.936,0,0,1,.271,4.349A33.486,33.486,0,0,1,269.073,261.984ZM239.78,242.317h4.37v30.592h-4.37Z"/><path class="cls-5" d="M229.237,247.462a10.192,10.192,0,0,0-3.342-3.7,11.284,11.284,0,0,0-11.06,0,10.175,10.175,0,0,0-3.342,3.7,15.694,15.694,0,0,0-1.625,4.94,31.82,31.82,0,0,0,0,10.421,15.705,15.705,0,0,0,1.625,4.939,10.146,10.146,0,0,0,3.343,3.7,11.27,11.27,0,0,0,11.058,0,10.186,10.186,0,0,0,3.342-3.7,15.67,15.67,0,0,0,1.624-4.939,31.863,31.863,0,0,0,0-10.422A15.723,15.723,0,0,0,229.237,247.462Zm-3.365,14.522a13.77,13.77,0,0,1-.926,3.593,6.073,6.073,0,0,1-1.784,2.436,4.82,4.82,0,0,1-5.618,0,6.2,6.2,0,0,1-1.762-2.436,13.663,13.663,0,0,1-.925-3.593,33.441,33.441,0,0,1-.271-4.371,32.988,32.988,0,0,1,.271-4.349,13.875,13.875,0,0,1,.925-3.594,6.192,6.192,0,0,1,1.762-2.457,4.82,4.82,0,0,1,5.618,0,6.08,6.08,0,0,1,1.784,2.457,14.119,14.119,0,0,1,.926,3.594,32.766,32.766,0,0,1,.271,4.349A33.312,33.312,0,0,1,225.872,261.984Zm48.189-9.584a15.8,15.8,0,0,0-1.623-4.939,10.2,10.2,0,0,0-3.342-3.7,11.287,11.287,0,0,0-11.06,0,10.166,10.166,0,0,0-3.342,3.7,15.67,15.67,0,0,0-1.626,4.94,31.894,31.894,0,0,0,0,10.421,15.681,15.681,0,0,0,1.626,4.939,10.152,10.152,0,0,0,3.342,3.7,11.272,11.272,0,0,0,11.059,0,10.2,10.2,0,0,0,3.342-3.7,15.694,15.694,0,0,0,1.623-4.939,31.79,31.79,0,0,0,0-10.422Zm-4.988,9.584a13.808,13.808,0,0,1-.927,3.593,6.073,6.073,0,0,1-1.784,2.436,4.82,4.82,0,0,1-5.618,0,6.218,6.218,0,0,1-1.762-2.436,13.664,13.664,0,0,1-.924-3.593,33.268,33.268,0,0,1-.271-4.371,32.818,32.818,0,0,1,.271-4.349,13.916,13.916,0,0,1,.924-3.594,6.211,6.211,0,0,1,1.762-2.457,4.82,4.82,0,0,1,5.618,0,6.08,6.08,0,0,1,1.784,2.457,14.16,14.16,0,0,1,.927,3.594,32.936,32.936,0,0,1,.271,4.349A33.486,33.486,0,0,1,269.073,261.984Z"/><circle class="cls-5" cx="152.976" cy="164.516" r="15.433"/><circle class="cls-2" cx="152.976" cy="164.516" r="9.067"/><circle class="cls-5" cx="749.063" cy="182.197" r="15.433"/><circle class="cls-3" cx="749.063" cy="182.197" r="9.067"/><circle class="cls-2" cx="695.556" cy="428.133" r="15.433"/><circle class="cls-1" cx="695.556" cy="428.133" r="9.067"/><circle class="cls-3" cx="532.579" cy="96.204" r="9.067"/><circle class="cls-3" cx="369.393" cy="471.185" r="9.067"/><circle class="cls-4" cx="479.292" cy="96.204" r="9.067"/><circle class="cls-5" cx="585.867" cy="96.204" r="9.067"/><circle class="cls-2" cx="426.004" cy="96.204" r="9.067"/><circle class="cls-4" cx="479.292" cy="471.185" r="9.067"/><circle class="cls-2" cx="424.342" cy="471.185" r="9.067"/><circle class="cls-5" cx="590" cy="268" r="130"/><path class="cls-3" d="M639.623,193.946c8.587,0,14.63,5.725,14.63,15.107v34.033c0,9.223,6.52,14.153,15.426,14.153v16.38c-8.906,0-15.426,4.93-15.426,13.995v34.032c0,9.382-6.043,15.107-14.63,15.107H623.561v-14.63h12.086V286.341a20.627,20.627,0,0,1,16.221-20.355v-1.272a20.629,20.629,0,0,1-16.221-20.356V208.576H623.561v-14.63Z"/><path class="cls-3" d="M540.109,336.753c-8.587,0-14.631-5.725-14.631-15.108V287.613c0-9.223-6.519-14.153-15.425-14.153V257.08c8.906,0,15.425-4.93,15.425-13.995V209.053c0-9.383,6.044-15.107,14.631-15.107h16.062v14.63H544.085v35.782a20.628,20.628,0,0,1-16.221,20.355v1.272a20.629,20.629,0,0,1,16.221,20.356v35.782h12.086v14.63Z"/><path class="cls-3" d="M577.144,296.916v-2.862c0-6.838,4.134-11.768,12.722-11.768,8.746,0,12.722,4.93,12.722,11.768v2.862c0,6.68-3.976,11.61-12.722,11.61C581.278,308.526,577.144,303.6,577.144,296.916Zm0-60.112v-2.863c0-6.838,4.134-11.768,12.722-11.768,8.746,0,12.722,4.93,12.722,11.768V236.8c0,6.679-3.976,11.609-12.722,11.609C581.278,248.413,577.144,243.483,577.144,236.8Z"/><circle class="cls-2" cx="446.392" cy="388.934" r="20.558"/><path class="cls-5" d="M446.357,368.34a19.81,19.81,0,0,0-10.9,3.15,20.846,20.846,0,0,0-10.9-3.15,20.594,20.594,0,1,0,0,41.188,19.8,19.8,0,0,0,10.9-3.149,20.861,20.861,0,0,0,10.9,3.149,20.594,20.594,0,0,0,0-41.188Zm-10.9,7.632a16.557,16.557,0,0,1,2.06,2.059h-4.12A16.764,16.764,0,0,1,435.453,375.972Zm-4.966,19.02H440.3a15.094,15.094,0,0,1-1.211,2.423h-7.511C431.214,396.688,430.85,395.84,430.487,394.992Zm-.727-9.692h11.266c.121.727.243,1.575.363,2.423H429.4C429.518,386.875,429.639,386.027,429.76,385.3Zm-.242,4.845h11.993a7.821,7.821,0,0,1-.363,2.423H429.881A7.821,7.821,0,0,1,429.518,390.145Zm10.9-7.268h-9.813a15.146,15.146,0,0,1,1.211-2.424h7.511C439.693,381.181,440.058,382.029,440.421,382.877ZM424.55,405.894a16.96,16.96,0,0,1,0-33.92,16.717,16.717,0,0,1,7.754,1.939,20.518,20.518,0,0,0,0,30.042A16.691,16.691,0,0,1,424.55,405.894Zm10.9-4a16.549,16.549,0,0,1-2.059-2.059h4.12A16.5,16.5,0,0,1,435.453,401.9Z"/><path class="cls-2" d="M126.4,245.821a11.567,11.567,0,1,0,11.567,11.567A11.565,11.565,0,0,0,126.4,245.821Zm0,15.422a3.856,3.856,0,1,1,3.856-3.855A3.853,3.853,0,0,1,126.4,261.243Z"/><path class="cls-2" d="M126.4,240.038c-12.976,0-22.849,6.988-28.916,17.35,6.067,10.362,15.94,17.35,28.916,17.35s22.852-6.988,28.916-17.35C149.248,247.026,139.37,240.038,126.4,240.038Zm0,30.844c-9.955,0-18.529-4.771-24.37-13.494,5.841-8.723,14.415-13.494,24.37-13.494s18.53,4.771,24.371,13.494C144.926,266.111,136.351,270.882,126.4,270.882Z"/></g></svg>